<svg id="Capa_1" data-name="Capa 1" xmlns="http://www.w3.org/2000/svg" xmlns:xlink="http://www.w3.org/1999/xlink" viewBox="0 0 225.31 186.19"><defs><style>.cls-1{fill:none;}.cls-2{opacity:0.2;}.cls-3{clip-path:url(#clip-path);}.cls-4{isolation:isolate;}.cls-5{clip-path:url(#clip-path-2);}.cls-6{clip-path:url(#clip-path-3);}.cls-7{clip-path:url(#clip-path-4);}.cls-8{fill:#222;}.cls-9{fill:#242424;}.cls-10{fill:#252525;}.cls-11{fill:#262626;}.cls-12{fill:#282828;}.cls-13{fill:#292929;}.cls-14{fill:#2a2a2a;}.cls-15{fill:#2c2c2c;}.cls-16{fill:#2d2d2d;}.cls-17{fill:#2e2e2e;}.cls-18{fill:#303030;}.cls-19{fill:#a6a7ab;}.cls-20{clip-path:url(#clip-path-6);}.cls-21{clip-path:url(#clip-path-7);}.cls-22{fill:#717174;}.cls-23{fill:#747578;}.cls-24{fill:#78797c;}.cls-25{fill:#7c7d80;}.cls-26{fill:#808184;}.cls-27{fill:#848588;}.cls-28{fill:#88888c;}.cls-29{fill:#8c8c90;}.cls-30{fill:#6d6d70;}.cls-31{fill:#69696c;}.cls-32{fill:#656568;}.cls-33{fill:#383838;}.cls-34{clip-path:url(#clip-path-9);}.cls-35{clip-path:url(#clip-path-10);}.cls-36{clip-path:url(#clip-path-12);}.cls-37{clip-path:url(#clip-path-13);}.cls-38{clip-path:url(#clip-path-14);}.cls-39{fill:#2d0000;}.cls-40{fill:#2e0000;}.cls-41{fill:#300000;}.cls-42{fill:#320000;}.cls-43{fill:#340000;}.cls-44{fill:#350000;}.cls-45{fill:#370000;}.cls-46{fill:#390000;}.cls-47{fill:#3a0000;}.cls-48{fill:#3c0000;}.cls-49{fill:#3e0000;}.cls-50{clip-path:url(#clip-path-16);}.cls-51{clip-path:url(#clip-path-17);}.cls-52{fill:#630209;}.cls-53{clip-path:url(#clip-path-19);}.cls-54{clip-path:url(#clip-path-20);}.cls-55{fill:#6e020a;}.cls-56{fill:#72020a;}.cls-57{fill:#76020b;}.cls-58{fill:#7a030b;}.cls-59{fill:#7d030b;}.cls-60{fill:#81030c;}.cls-61{fill:#85030c;}.cls-62{fill:#89030c;}.cls-63{fill:#6a020a;}.cls-64{fill:#670209;}.cls-65{fill:#4a0000;}.cls-66{fill:#a3030f;}.cls-67{clip-path:url(#clip-path-22);}.cls-68{clip-path:url(#clip-path-23);}.cls-69{fill:#be0411;}</style><clipPath id="clip-path"><rect class="cls-1" y="52.18" width="225.31" height="134"/></clipPath><clipPath id="clip-path-2"><rect class="cls-1" x="44.21" y="27.23" width="180.97" height="125.77"/></clipPath><clipPath id="clip-path-3"><rect class="cls-1" x="50.67" y="30.88" width="168.07" height="71.02"/></clipPath><clipPath id="clip-path-4"><path class="cls-1" d="M218.73,78.34v23.55c0-26.21-37.62-47.46-84-47.46s-84,21.25-84,47.46V78.34c0-26.21,37.62-47.46,84-47.46s84,21.25,84,47.46"/></clipPath><clipPath id="clip-path-6"><rect class="cls-1" x="50.67" y="78.34" width="168.07" height="71.01"/></clipPath><clipPath id="clip-path-7"><path class="cls-1" d="M134.7,149.36c-46.41,0-84-21.25-84-47.47V78.34c0,26.22,37.62,47.47,84,47.47s84-21.25,84-47.47v23.55c0,26.22-37.62,47.47-84,47.47"/></clipPath><clipPath id="clip-path-9"><rect class="cls-1" x="44.21" y="78.34" width="180.97" height="74.66"/></clipPath><clipPath id="clip-path-10"><path class="cls-1" d="M225.19,78.34v23.55c0,28.19-40.6,51.11-90.49,51.11s-90.49-22.92-90.49-51.11V78.34c0,28.18,40.6,51.11,90.49,51.11s90.49-22.93,90.49-51.11"/></clipPath><clipPath id="clip-path-12"><rect class="cls-1" x="62" y="2.7" width="145.39" height="108.03"/></clipPath><clipPath id="clip-path-13"><rect class="cls-1" x="68.46" y="6.41" width="132.49" height="62.64"/></clipPath><clipPath id="clip-path-14"><path class="cls-1" d="M201,44.4V69c0-21-29.67-38-66.25-38s-66.24,17-66.24,38V44.4c0-21,29.65-38,66.24-38s66.25,17,66.25,38"/></clipPath><clipPath id="clip-path-16"><rect class="cls-1" x="68.46" y="44.4" width="28.79" height="55.99"/></clipPath><clipPath id="clip-path-17"><path class="cls-1" d="M68.68,72.22A22.45,22.45,0,0,1,68.46,69V44.4a22.31,22.31,0,0,0,.22,3.17q0,12.33,0,24.65"/></clipPath><clipPath id="clip-path-19"><rect class="cls-1" x="68.46" y="44.4" width="132.49" height="62.64"/></clipPath><clipPath id="clip-path-20"><path class="cls-1" d="M68.68,72.22c0-.35,0-.82,0-1.17V47.57c2.81,19.5,31.29,34.83,66,34.83,36.58,0,66.25-17,66.25-38V69c0,21-29.67,38-66.25,38-34.72,0-63.2-15.32-66-34.82"/></clipPath><clipPath id="clip-path-22"><rect class="cls-1" x="62" y="44.4" width="145.39" height="66.34"/></clipPath><clipPath id="clip-path-23"><path class="cls-1" d="M207.39,44.4V69c0,23-32.61,41.7-72.69,41.7S62,92,62,69V44.4c0,23,32.61,41.7,72.7,41.7s72.69-18.71,72.69-41.7"/></clipPath></defs><g class="cls-2"><g class="cls-3"><path d="M224.81,100.93c5.8,35.59-39.72,72.62-101.66,82.7S6.29,173,.5,137.44s39.72-72.62,101.66-82.7S219,65.33,224.81,100.93"/></g></g><g class="cls-4"><g class="cls-5"><g class="cls-4"><g class="cls-6"><g class="cls-7"><g class="cls-4"><g class="cls-6"><path class="cls-8" d="M218.73,78.34v23.55c0-16.07-14.14-30.28-35.79-38.87V39.47c21.65,8.59,35.79,22.8,35.79,38.87"/><path class="cls-9" d="M182.94,39.47V63c-3.16-1.25-6.49-2.38-9.95-3.39V36.08c3.46,1,6.79,2.14,9.95,3.39"/><path class="cls-10" d="M173,36.08V59.63c-2.74-.79-5.57-1.5-8.47-2.12V34c2.9.63,5.73,1.34,8.47,2.13"/><path class="cls-11" d="M164.52,34V57.51q-3.92-.84-8-1.46V32.49q4.08.63,8,1.46"/><path class="cls-12" d="M156.52,32.49V56.05c-2.57-.39-5.17-.71-7.83-1V31.53c2.66.25,5.26.58,7.83,1"/><path class="cls-13" d="M148.69,31.53V55.08c-2.59-.24-5.23-.42-7.9-.53V31c2.67.11,5.31.29,7.9.53"/><path class="cls-14" d="M140.79,31V54.55q-3-.12-6.09-.12l-2.21,0V30.9c.73,0,1.47,0,2.21,0q3.08,0,6.09.12"/><path class="cls-15" d="M132.48,30.9V54.45q-4.46.06-8.79.38V31.28q4.34-.32,8.79-.38"/><path class="cls-16" d="M123.69,31.28V54.83q-5,.38-9.73,1.06V32.33q4.77-.67,9.73-1"/><path class="cls-17" d="M114,32.34V55.89c-4.31.61-8.49,1.42-12.5,2.4V34.74c4-1,8.19-1.79,12.5-2.4"/><path class="cls-18" d="M101.46,34.74V58.29C88.93,61.34,78,66.06,69.5,72V48.4c8.49-5.89,19.43-10.61,32-13.66"/><path class="cls-17" d="M69.5,48.4V72a58.2,58.2,0,0,0-7.6,6.22V54.62a58.2,58.2,0,0,1,7.6-6.22"/><path class="cls-16" d="M61.9,54.62V78.17a45.89,45.89,0,0,0-4.5,5.08V59.7a45.89,45.89,0,0,1,4.5-5.08"/><path class="cls-15" d="M57.4,59.7V83.25a36.52,36.52,0,0,0-3,4.58V64.28a36.52,36.52,0,0,1,3-4.58"/><path class="cls-14" d="M54.42,64.28V87.83a31.88,31.88,0,0,0-2,4.43V68.71a31.36,31.36,0,0,1,2-4.43"/><path class="cls-13" d="M52.4,68.71V92.26a28.85,28.85,0,0,0-1.23,4.43V73.14a28.85,28.85,0,0,1,1.23-4.43"/><path class="cls-12" d="M51.17,73.14V96.69a28.15,28.15,0,0,0-.5,4.58V77.72a28,28,0,0,1,.5-4.58"/><path class="cls-11" d="M50.67,77.72v0"/></g></g></g></g></g><path class="cls-19" d="M134.7,30.88c46.41,0,84,21.25,84,47.46s-37.62,47.47-84,47.47-84-21.25-84-47.47,37.62-47.46,84-47.46"/><g class="cls-4"><g class="cls-20"><g class="cls-21"><g class="cls-4"><g class="cls-20"><path class="cls-22" d="M218.73,78.34v0"/><path class="cls-23" d="M218.73,79v23.55a27.9,27.9,0,0,1-.49,4.57V83.54a27.9,27.9,0,0,0,.49-4.57"/><path class="cls-24" d="M218.24,83.54v23.55a29.33,29.33,0,0,1-1.24,4.44V88a29.33,29.33,0,0,0,1.24-4.44"/><path class="cls-25" d="M217,88v23.55a31.25,31.25,0,0,1-2,4.42V92.4A31.25,31.25,0,0,0,217,88"/><path class="cls-26" d="M215,92.4V116a36.1,36.1,0,0,1-3,4.58V97a36.82,36.82,0,0,0,3-4.58"/><path class="cls-27" d="M212,97v23.55a44.89,44.89,0,0,1-4.49,5.08V102.06A44.89,44.89,0,0,0,212,97"/><path class="cls-28" d="M207.51,102.06v23.55a59.57,59.57,0,0,1-7.6,6.22V108.28a59.57,59.57,0,0,0,7.6-6.22"/><path class="cls-29" d="M199.91,108.28v23.55c-8.5,5.9-19.45,10.62-32,13.67V122c12.52-3,23.47-7.77,32-13.67"/><path class="cls-28" d="M167.94,122V145.5q-6,1.47-12.5,2.4V124.35q6.47-.93,12.5-2.4"/><path class="cls-27" d="M155.44,124.35V147.9q-4.77.69-9.73,1V125.4c3.31-.24,6.55-.6,9.73-1.05"/><path class="cls-26" d="M145.71,125.4V149q-4.34.33-8.79.39V125.79q4.46-.06,8.79-.39"/><path class="cls-25" d="M136.92,125.79v23.55l-2.22,0c-2,0-4.08-.05-6.09-.13V125.68c2,.08,4,.13,6.09.13l2.22,0"/><path class="cls-24" d="M128.61,125.68v23.55c-2.67-.1-5.31-.28-7.9-.53V125.15c2.59.25,5.23.42,7.9.53"/><path class="cls-23" d="M120.71,125.15V148.7q-4-.37-7.83-1V124.19q3.84.59,7.83,1"/><path class="cls-22" d="M112.88,124.19v23.55q-4.08-.62-8-1.46V122.73q3.91.84,8,1.46"/><path class="cls-30" d="M104.88,122.73v23.55q-4.36-.93-8.47-2.13V120.6q4.11,1.2,8.47,2.13"/><path class="cls-31" d="M96.41,120.6v23.55c-3.46-1-6.79-2.13-10-3.39V117.21c3.16,1.26,6.49,2.39,10,3.39"/><path class="cls-32" d="M86.46,117.21v23.55C64.81,132.18,50.67,118,50.67,101.89V78.34c0,16.08,14.14,30.28,35.79,38.87"/></g></g></g></g></g><path class="cls-33" d="M134.7,27.23c49.89,0,90.49,22.93,90.49,51.11s-40.6,51.11-90.49,51.11S44.21,106.52,44.21,78.34,84.8,27.23,134.7,27.23m0,98.58c46.41,0,84-21.25,84-47.47s-37.62-47.46-84-47.46-84,21.25-84,47.46,37.62,47.47,84,47.47"/><g class="cls-4"><g class="cls-34"><g class="cls-35"><g class="cls-4"><g class="cls-34"><path class="cls-11" d="M225.19,78.34v23.55c0,.23,0,.45,0,.67V79c0-.22,0-.45,0-.67"/><path class="cls-12" d="M225.18,79v23.55a29.86,29.86,0,0,1-.53,4.91V83.92a29.86,29.86,0,0,0,.53-4.91"/><path class="cls-13" d="M224.65,83.92v23.55a30.87,30.87,0,0,1-1.32,4.76V88.68a31.18,31.18,0,0,0,1.32-4.76"/><path class="cls-14" d="M223.33,88.68v23.55a35.5,35.5,0,0,1-2.17,4.76V93.44a35.5,35.5,0,0,0,2.17-4.76"/><path class="cls-15" d="M221.16,93.44V117a39.88,39.88,0,0,1-3.21,4.93V98.36a39,39,0,0,0,3.21-4.92"/><path class="cls-16" d="M218,98.36v23.56a48,48,0,0,1-4.85,5.47V103.84A47.26,47.26,0,0,0,218,98.36"/><path class="cls-17" d="M213.1,103.84v23.55a64,64,0,0,1-8.2,6.72V110.55a63.09,63.09,0,0,0,8.2-6.71"/><path class="cls-18" d="M204.9,110.55v23.56c-9.17,6.36-21,11.45-34.5,14.74V125.3c13.51-3.29,25.33-8.38,34.5-14.75"/><path class="cls-17" d="M170.4,125.3v23.55c-4.32,1.06-8.82,1.92-13.45,2.59V127.89c4.63-.67,9.13-1.53,13.45-2.59"/><path class="cls-16" d="M157,127.89v23.55q-5.12.74-10.44,1.13V129c3.55-.27,7-.64,10.44-1.13"/><path class="cls-15" d="M146.51,129v23.55c-3.1.23-6.25.37-9.43.41V129.43c3.18,0,6.33-.18,9.43-.41"/><path class="cls-14" d="M137.08,129.43V153c-.79,0-1.58,0-2.38,0-2.19,0-4.37,0-6.52-.13V129.32c2.15.09,4.33.13,6.52.13l2.38,0"/><path class="cls-13" d="M128.18,129.32v23.55q-4.31-.18-8.49-.57V128.75q4.19.39,8.49.57"/><path class="cls-12" d="M119.69,128.75V152.3c-2.85-.27-5.65-.62-8.41-1V127.72c2.76.41,5.56.76,8.41,1"/><path class="cls-11" d="M111.28,127.72v23.55c-2.93-.45-5.8-1-8.61-1.58V126.14c2.81.61,5.68,1.13,8.61,1.58"/><path class="cls-10" d="M102.67,126.14v23.55q-4.69-1-9.12-2.29V123.85q4.42,1.29,9.12,2.29"/><path class="cls-9" d="M93.55,123.85V147.4q-5.61-1.62-10.73-3.66V120.19q5.12,2,10.73,3.66"/><path class="cls-8" d="M82.82,120.19v23.55c-23.33-9.25-38.61-24.56-38.61-41.85V78.34c0,17.29,15.28,32.6,38.61,41.85"/></g></g></g></g></g></g></g><g class="cls-4"><g class="cls-36"><g class="cls-4"><g class="cls-37"><g class="cls-38"><g class="cls-4"><g class="cls-37"><path class="cls-39" d="M201,44.4V69c0-13-11.41-24.49-28.79-31.34V13.06C189.54,19.91,201,31.39,201,44.4"/><path class="cls-40" d="M172.16,13.06V37.7q-3.81-1.48-8-2.69V10.37q4.16,1.19,8,2.69"/><path class="cls-41" d="M164.19,10.37V35q-3.33-.94-6.84-1.68V8.69c2.34.48,4.62,1.05,6.84,1.68"/><path class="cls-42" d="M157.35,8.69V33.33c-2.1-.44-4.26-.82-6.45-1.14V7.55c2.19.32,4.35.7,6.45,1.14"/><path class="cls-43" d="M150.9,7.55V32.19q-3.09-.43-6.29-.72V6.83q3.19.27,6.29.72"/><path class="cls-44" d="M144.61,6.83V31.47q-3.15-.27-6.4-.37V6.46c2.17.06,4.3.19,6.4.37"/><path class="cls-45" d="M138.21,6.46V31.1c-1.16,0-2.33-.05-3.51-.05s-2.15,0-3.21,0V6.45c1.06,0,2.13,0,3.21,0s2.35,0,3.51,0"/><path class="cls-46" d="M131.49,6.45V31.09q-3.6.11-7.1.42V6.86c2.33-.21,4.7-.34,7.1-.41"/><path class="cls-47" d="M124.39,6.86V31.51c-2.77.25-5.5.59-8.15,1V7.9c2.65-.44,5.38-.79,8.15-1"/><path class="cls-48" d="M116.24,7.9V32.54a102.25,102.25,0,0,0-11,2.45V10.35a99.88,99.88,0,0,1,11-2.45"/><path class="cls-49" d="M105.28,10.35V35a75,75,0,0,0-20.43,9V19.38a74.44,74.44,0,0,1,20.43-9"/><path class="cls-48" d="M84.85,19.38V44a48.81,48.81,0,0,0-7,5.5V24.88a47.44,47.44,0,0,1,7-5.5"/><path class="cls-47" d="M77.86,24.88V49.52A37.43,37.43,0,0,0,74,53.75V29.11a37.43,37.43,0,0,1,3.82-4.23"/><path class="cls-46" d="M74,29.11V53.75a29.67,29.67,0,0,0-2.5,3.81V32.91a28.9,28.9,0,0,1,2.5-3.8"/><path class="cls-45" d="M71.54,32.91V57.56a25.78,25.78,0,0,0-1.67,3.63V36.54a26.86,26.86,0,0,1,1.67-3.63"/><path class="cls-44" d="M69.87,36.54V61.19a24,24,0,0,0-1,3.62V40.16a24.68,24.68,0,0,1,1-3.62"/><path class="cls-43" d="M68.86,40.16V64.81a23.13,23.13,0,0,0-.4,3.73V43.89a23.25,23.25,0,0,1,.4-3.73"/><path class="cls-42" d="M68.46,43.89v0"/></g></g></g></g></g><g class="cls-4"><g class="cls-50"><g class="cls-51"><g class="cls-4"><g class="cls-50"><path class="cls-52" d="M97.24,75.75v24.64C79.86,93.54,68.46,82.06,68.46,69V44.4c0,13,11.4,24.5,28.78,31.35"/></g></g></g></g></g><g class="cls-4"><g class="cls-53"><g class="cls-54"><g class="cls-4"><g class="cls-53"><path class="cls-55" d="M201,44.4V69c0,.17,0,.34,0,.51V44.91c0-.17,0-.34,0-.51"/><path class="cls-56" d="M200.94,44.91V69.55a22.17,22.17,0,0,1-.4,3.73V48.64a22.28,22.28,0,0,0,.4-3.73"/><path class="cls-57" d="M200.54,48.63V73.28a24.68,24.68,0,0,1-1,3.62V52.26a24.46,24.46,0,0,0,1-3.63"/><path class="cls-58" d="M199.53,52.26V76.9a25.68,25.68,0,0,1-1.67,3.63V55.89a25.68,25.68,0,0,0,1.67-3.63"/><path class="cls-59" d="M197.86,55.89V80.53a29.67,29.67,0,0,1-2.5,3.81V59.69a28.9,28.9,0,0,0,2.5-3.8"/><path class="cls-60" d="M195.36,59.69V84.34a36.51,36.51,0,0,1-3.82,4.22V63.92a37.43,37.43,0,0,0,3.82-4.23"/><path class="cls-61" d="M191.54,63.92V88.56a48.16,48.16,0,0,1-7,5.51V69.42a47.44,47.44,0,0,0,7-5.5"/><path class="cls-62" d="M184.55,69.42V94.07a75.25,75.25,0,0,1-20.44,9V78.45a74.65,74.65,0,0,0,20.44-9"/><path class="cls-61" d="M164.11,78.46V103.1a99.88,99.88,0,0,1-11,2.45V80.9a99.89,99.89,0,0,0,11-2.44"/><path class="cls-60" d="M153.15,80.9v24.65c-2.65.44-5.38.79-8.15,1V81.94c2.77-.25,5.5-.6,8.15-1"/><path class="cls-59" d="M145,81.94v24.65q-3.5.3-7.1.41V82.36q3.6-.1,7.1-.42"/><path class="cls-58" d="M137.9,82.36V107c-1.06,0-2.13,0-3.2,0s-2.36,0-3.52-.05V82.35c1.16,0,2.34.05,3.52.05s2.14,0,3.2,0"/><path class="cls-57" d="M131.18,82.35V107c-2.16-.06-4.3-.19-6.4-.37V82c2.1.18,4.24.3,6.4.37"/><path class="cls-56" d="M124.78,82v24.64c-2.13-.18-4.22-.43-6.28-.72V81.25q3.09.45,6.28.73"/><path class="cls-55" d="M118.5,81.25V105.9c-2.19-.32-4.35-.7-6.45-1.14V80.12c2.1.44,4.26.82,6.45,1.13"/><path class="cls-63" d="M112.05,80.12v24.64q-3.51-.74-6.83-1.68V78.44q3.32.94,6.83,1.68"/><path class="cls-64" d="M105.22,78.44v24.64q-4.17-1.18-8-2.69V75.75c2.53,1,5.19,1.9,8,2.69"/><path class="cls-52" d="M97.24,75.75v24.64C79.86,93.54,68.46,82.06,68.46,69V44.4c0,13,11.4,24.5,28.78,31.35"/></g></g></g></g></g><path class="cls-65" d="M134.7,2.7c40.08,0,72.69,18.71,72.69,41.7S174.78,86.09,134.7,86.09,62,67.39,62,44.4,94.61,2.7,134.7,2.7m0,79.7c36.58,0,66.25-17,66.25-38s-29.67-38-66.25-38-66.24,17-66.24,38,29.65,38,66.24,38"/><path class="cls-66" d="M134.7,6.41c36.58,0,66.25,17,66.25,38s-29.67,38-66.25,38-66.24-17-66.24-38,29.65-38,66.24-38"/><g class="cls-4"><g class="cls-67"><g class="cls-68"><g class="cls-4"><g class="cls-67"><path class="cls-42" d="M207.39,44.4V69c0,.19,0,.37,0,.56V45c0-.18,0-.37,0-.55"/><path class="cls-43" d="M207.38,45V69.6a24.13,24.13,0,0,1-.44,4.07V49a24.14,24.14,0,0,0,.44-4.08"/><path class="cls-44" d="M206.94,49V73.67a25.44,25.44,0,0,1-1.1,4V53a25.33,25.33,0,0,0,1.1-4"/><path class="cls-45" d="M205.84,53V77.64a28.9,28.9,0,0,1-1.83,4V57a29,29,0,0,0,1.83-4"/><path class="cls-46" d="M204,57V81.61a32.59,32.59,0,0,1-2.74,4.18V61.14A31.81,31.81,0,0,0,204,57"/><path class="cls-47" d="M201.27,61.14V85.79a40.94,40.94,0,0,1-4.19,4.64V65.79a40.17,40.17,0,0,0,4.19-4.65"/><path class="cls-48" d="M197.08,65.79V90.43a53.52,53.52,0,0,1-7.69,6V71.84a54.23,54.23,0,0,0,7.69-6"/><path class="cls-49" d="M189.39,71.84V96.48a82.07,82.07,0,0,1-22.47,9.93V81.77a82.07,82.07,0,0,0,22.47-9.93"/><path class="cls-48" d="M166.92,81.77v24.64a106.86,106.86,0,0,1-12,2.69V84.46a109.1,109.1,0,0,0,12-2.69"/><path class="cls-47" d="M154.89,84.46V109.1q-4.37.74-8.93,1.14V85.6q4.56-.42,8.93-1.14"/><path class="cls-46" d="M146,85.6v24.64q-3.83.35-7.76.45V86.05c2.62-.07,5.21-.23,7.76-.45"/><path class="cls-45" d="M138.2,86.05v24.64c-1.16,0-2.33,0-3.5,0s-2.57,0-3.85-.06V86c1.28,0,2.56.06,3.85.06s2.34,0,3.5,0"/><path class="cls-44" d="M130.85,86v24.64c-2.36-.07-4.69-.21-7-.4V85.63q3.45.3,7,.41"/><path class="cls-43" d="M123.86,85.63v24.65c-2.33-.21-4.63-.47-6.88-.79V84.84c2.25.33,4.55.59,6.88.79"/><path class="cls-42" d="M117,84.84v24.65q-3.62-.52-7.07-1.25V83.6c2.3.48,4.66.9,7.07,1.24"/><path class="cls-41" d="M109.91,83.6v24.64c-2.57-.53-5.08-1.15-7.51-1.85V81.75c2.43.69,4.94,1.31,7.51,1.85"/><path class="cls-40" d="M102.4,81.75v24.64c-3.05-.87-6-1.86-8.76-3V78.79q4.19,1.65,8.76,3"/><path class="cls-39" d="M93.64,78.79v24.65C74.55,95.92,62,83.3,62,69V44.4c0,14.26,12.55,26.87,31.64,34.39"/></g></g></g></g></g></g></g><path class="cls-69" d="M184.37,39.93c0,14.4-22.24,26.07-49.67,26.07S85,54.33,85,39.93s22.24-26.07,49.67-26.07,49.67,11.67,49.67,26.07"/></svg>