<svg id="Capa_1" data-name="Capa 1" xmlns="http://www.w3.org/2000/svg" xmlns:xlink="http://www.w3.org/1999/xlink" viewBox="0 0 225.31 183.48"><defs><style>.cls-1{fill:none;}.cls-2{opacity:0.2;}.cls-3{clip-path:url(#clip-path);}.cls-4{isolation:isolate;}.cls-5{clip-path:url(#clip-path-2);}.cls-6{clip-path:url(#clip-path-3);}.cls-7{clip-path:url(#clip-path-4);}.cls-8{fill:#222;}.cls-9{fill:#242424;}.cls-10{fill:#252525;}.cls-11{fill:#262626;}.cls-12{fill:#282828;}.cls-13{fill:#292929;}.cls-14{fill:#2a2a2a;}.cls-15{fill:#2c2c2c;}.cls-16{fill:#2d2d2d;}.cls-17{fill:#2e2e2e;}.cls-18{fill:#303030;}.cls-19{clip-path:url(#clip-path-6);}.cls-20{clip-path:url(#clip-path-7);}.cls-21{fill:#656568;}.cls-22{clip-path:url(#clip-path-9);}.cls-23{clip-path:url(#clip-path-10);}.cls-24{fill:#717174;}.cls-25{fill:#747578;}.cls-26{fill:#78797c;}.cls-27{fill:#7c7d80;}.cls-28{fill:#808184;}.cls-29{fill:#848588;}.cls-30{fill:#88888c;}.cls-31{fill:#8c8c90;}.cls-32{fill:#6d6d70;}.cls-33{fill:#69696c;}.cls-34{fill:#a6a7ab;}.cls-35{fill:#383838;}.cls-36{clip-path:url(#clip-path-12);}.cls-37{clip-path:url(#clip-path-13);}.cls-38{clip-path:url(#clip-path-15);}.cls-39{clip-path:url(#clip-path-16);}.cls-40{clip-path:url(#clip-path-17);}.cls-41{fill:#464547;}.cls-42{fill:#48484a;}.cls-43{fill:#4b4a4d;}.cls-44{fill:#4e4d4f;}.cls-45{fill:#505052;}.cls-46{fill:#535255;}.cls-47{fill:#565558;}.cls-48{fill:#58585a;}.cls-49{fill:#5b5a5d;}.cls-50{fill:#5e5d60;}.cls-51{fill:#606063;}.cls-52{fill:#dbdbdb;}.cls-53{clip-path:url(#clip-path-19);}.cls-54{clip-path:url(#clip-path-20);}.cls-55{fill:#949494;}.cls-56{fill:#999;}.cls-57{fill:#9e9e9e;}.cls-58{fill:#a3a3a3;}.cls-59{fill:#a8a8a8;}.cls-60{fill:#adadad;}.cls-61{fill:#b3b3b3;}.cls-62{fill:#b8b8b8;}.cls-63{fill:#8f8f8f;}.cls-64{fill:#8a8a8a;}.cls-65{fill:#858585;}.cls-66{fill:#737276;}.cls-67{clip-path:url(#clip-path-22);}.cls-68{clip-path:url(#clip-path-23);}.cls-69{fill:#fff;}</style><clipPath id="clip-path"><rect class="cls-1" y="49.48" width="225.31" height="134"/></clipPath><clipPath id="clip-path-2"><rect class="cls-1" x="44.21" y="24.53" width="180.97" height="125.77"/></clipPath><clipPath id="clip-path-3"><rect class="cls-1" x="50.66" y="28.17" width="168.06" height="71.02"/></clipPath><clipPath id="clip-path-4"><path class="cls-1" d="M218.73,75.64V99.19c0-26.21-37.62-47.46-84-47.46s-84,21.25-84,47.46V75.64c0-26.22,37.62-47.47,84-47.47s84,21.25,84,47.47"/></clipPath><clipPath id="clip-path-6"><rect class="cls-1" x="50.66" y="75.64" width="35.79" height="62.42"/></clipPath><clipPath id="clip-path-7"><path class="cls-1" d="M64.37,125.18c-8.67-7.47-13.71-16.39-13.71-26V75.64c0,9.59,5,18.52,13.71,26v23.55Z"/></clipPath><clipPath id="clip-path-9"><rect class="cls-1" x="50.66" y="75.64" width="168.06" height="71.01"/></clipPath><clipPath id="clip-path-10"><path class="cls-1" d="M64.37,125.18V101.63c15,12.93,40.9,21.47,70.33,21.47,46.41,0,84-21.25,84-47.46V99.19c0,26.21-37.62,47.46-84,47.46-29.43,0-55.32-8.54-70.33-21.47"/></clipPath><clipPath id="clip-path-12"><rect class="cls-1" x="44.21" y="75.64" width="180.97" height="74.66"/></clipPath><clipPath id="clip-path-13"><path class="cls-1" d="M225.18,75.64V99.19c0,28.18-40.59,51.11-90.48,51.11S44.21,127.37,44.21,99.19V75.64c0,28.18,40.59,51.11,90.49,51.11s90.48-22.93,90.48-51.11"/></clipPath><clipPath id="clip-path-15"><rect class="cls-1" x="62" width="145.38" height="108.04"/></clipPath><clipPath id="clip-path-16"><rect class="cls-1" x="68.46" y="3.7" width="132.48" height="62.64"/></clipPath><clipPath id="clip-path-17"><path class="cls-1" d="M200.94,41.7V66.34c0-21-29.66-38-66.24-38s-66.24,17-66.24,38V41.7c0-21,29.65-38,66.24-38s66.24,17,66.24,38"/></clipPath><clipPath id="clip-path-19"><rect class="cls-1" x="68.46" y="41.7" width="132.48" height="62.64"/></clipPath><clipPath id="clip-path-20"><path class="cls-1" d="M200.94,41.7V66.34c0,21-29.66,38-66.24,38s-66.24-17-66.24-38V41.7c0,21,29.65,38,66.24,38s66.24-17,66.24-38"/></clipPath><clipPath id="clip-path-22"><rect class="cls-1" x="62" y="41.7" width="145.38" height="66.34"/></clipPath><clipPath id="clip-path-23"><path class="cls-1" d="M207.39,41.7V66.34c0,23-32.61,41.7-72.69,41.7S62,89.33,62,66.34V41.7c0,23,32.61,41.7,72.7,41.7s72.69-18.71,72.69-41.7"/></clipPath></defs><g class="cls-2"><g class="cls-3"><path d="M224.81,98.22c5.8,35.6-39.72,72.63-101.66,82.71S6.29,170.34.5,134.74,40.22,62.12,102.16,52,219,62.63,224.81,98.22"/></g></g><g class="cls-4"><g class="cls-5"><g class="cls-4"><g class="cls-6"><g class="cls-7"><g class="cls-4"><g class="cls-6"><path class="cls-8" d="M218.73,75.64V99.19c0-16.08-14.15-30.28-35.79-38.87V36.77c21.64,8.59,35.79,22.79,35.79,38.87"/><path class="cls-9" d="M182.94,36.77V60.32c-3.16-1.25-6.49-2.39-9.95-3.39V33.38c3.46,1,6.79,2.13,9.95,3.39"/><path class="cls-10" d="M173,33.38V56.93c-2.74-.79-5.57-1.51-8.47-2.13V31.25c2.9.62,5.73,1.34,8.47,2.13"/><path class="cls-11" d="M164.52,31.25V54.8q-3.92-.84-8-1.46V29.79q4.08.62,8,1.46"/><path class="cls-12" d="M156.52,29.79V53.34c-2.56-.38-5.18-.71-7.83-1V28.83c2.65.25,5.27.57,7.83,1"/><path class="cls-13" d="M148.69,28.83V52.38c-2.59-.24-5.23-.42-7.9-.53V28.3c2.67.11,5.31.29,7.9.53"/><path class="cls-14" d="M140.79,28.3V51.85q-3-.12-6.09-.12h-2.22V28.19l2.22,0c2,0,4.07,0,6.09.13"/><path class="cls-15" d="M132.48,28.19V51.74c-3,0-5.91.18-8.8.39V28.58c2.89-.21,5.83-.35,8.8-.39"/><path class="cls-16" d="M123.68,28.58V52.13c-3.3.25-6.55.6-9.72,1V29.63c3.17-.45,6.42-.81,9.72-1.05"/><path class="cls-17" d="M114,29.63V53.18c-4.31.62-8.49,1.43-12.51,2.41V32c4-1,8.2-1.78,12.51-2.4"/><path class="cls-18" d="M101.45,32V55.59c-12.52,3-23.47,7.76-32,13.66V45.7C78,39.8,88.93,35.08,101.45,32"/><path class="cls-17" d="M69.49,45.7V69.25a58.88,58.88,0,0,0-7.6,6.22V51.92a58.88,58.88,0,0,1,7.6-6.22"/><path class="cls-16" d="M61.89,51.92V75.47a46,46,0,0,0-4.5,5.08V57a46,46,0,0,1,4.5-5.08"/><path class="cls-15" d="M57.39,57V80.55a38.09,38.09,0,0,0-3,4.58V61.57a38,38,0,0,1,3-4.57"/><path class="cls-14" d="M54.41,61.57V85.12a32.58,32.58,0,0,0-2,4.44V66a33,33,0,0,1,2-4.43"/><path class="cls-13" d="M52.4,66V89.55A29.33,29.33,0,0,0,51.16,94V70.44A29.33,29.33,0,0,1,52.4,66"/><path class="cls-12" d="M51.16,70.44V94a27.9,27.9,0,0,0-.49,4.58V75a27.9,27.9,0,0,1,.49-4.57"/><path class="cls-11" d="M50.67,75V98.57c0,.2,0,.41,0,.62V75.64c0-.21,0-.42,0-.62"/></g></g></g></g></g><g class="cls-4"><g class="cls-19"><g class="cls-20"><g class="cls-4"><g class="cls-19"><path class="cls-21" d="M86.46,114.51v23.55c-21.65-8.59-35.8-22.8-35.8-38.87V75.64c0,16.07,14.15,30.28,35.8,38.87"/></g></g></g></g></g><g class="cls-4"><g class="cls-22"><g class="cls-23"><g class="cls-4"><g class="cls-22"><path class="cls-24" d="M218.73,75.64V99.19c0,.21,0,.42,0,.62V76.26c0-.21,0-.41,0-.62"/><path class="cls-25" d="M218.72,76.26V99.81a26.85,26.85,0,0,1-.49,4.58V80.84a27,27,0,0,0,.49-4.58"/><path class="cls-26" d="M218.23,80.84v23.55a29.29,29.29,0,0,1-1.23,4.44V85.27a28.85,28.85,0,0,0,1.23-4.43"/><path class="cls-27" d="M217,85.27v23.55a32,32,0,0,1-2,4.43V89.7a32.53,32.53,0,0,0,2-4.43"/><path class="cls-28" d="M215,89.7v23.55a36.91,36.91,0,0,1-3,4.58V94.28a37.67,37.67,0,0,0,3-4.58"/><path class="cls-29" d="M212,94.28v23.55a45,45,0,0,1-4.5,5.08V99.36a45.89,45.89,0,0,0,4.5-5.08"/><path class="cls-30" d="M207.5,99.36v23.55a58.2,58.2,0,0,1-7.6,6.22V105.58a58.2,58.2,0,0,0,7.6-6.22"/><path class="cls-31" d="M199.9,105.58v23.55c-8.49,5.9-19.44,10.62-32,13.66V119.24c12.52-3,23.47-7.77,32-13.66"/><path class="cls-30" d="M167.94,119.24v23.55c-4,1-8.19,1.79-12.5,2.41V121.65c4.31-.62,8.49-1.43,12.5-2.41"/><path class="cls-29" d="M155.44,121.65V145.2q-4.77.68-9.73,1.05V122.7q5-.37,9.73-1"/><path class="cls-28" d="M145.71,122.7v23.55q-4.34.31-8.8.39V123.09q4.47-.07,8.8-.39"/><path class="cls-27" d="M136.91,123.09v23.55H134.7q-3.07,0-6.09-.12V123q3,.12,6.09.12h2.21"/><path class="cls-26" d="M128.61,123v23.55q-4-.17-7.91-.53V122.45q3.9.36,7.91.53"/><path class="cls-25" d="M120.7,122.45V146q-4-.37-7.82-1V121.49c2.56.38,5.17.71,7.82,1"/><path class="cls-24" d="M112.88,121.49V145c-2.73-.42-5.4-.9-8-1.46V120c2.61.56,5.28,1,8,1.46"/><path class="cls-32" d="M104.87,120v23.55c-2.9-.62-5.73-1.34-8.47-2.13V117.9c2.74.79,5.57,1.5,8.47,2.13"/><path class="cls-33" d="M96.4,117.9v23.55c-3.46-1-6.78-2.14-9.94-3.39V114.51c3.16,1.25,6.48,2.39,9.94,3.39"/><path class="cls-21" d="M86.46,114.51v23.55c-21.65-8.59-35.8-22.8-35.8-38.87V75.64c0,16.07,14.15,30.28,35.8,38.87"/></g></g></g></g></g><path class="cls-34" d="M134.7,28.18c46.41,0,84,21.24,84,47.46s-37.62,47.46-84,47.46-84-21.25-84-47.46,37.62-47.46,84-47.46"/><path class="cls-35" d="M134.7,24.53c49.89,0,90.48,22.93,90.48,51.11s-40.59,51.11-90.48,51.11S44.21,103.82,44.21,75.64,84.8,24.53,134.7,24.53m0,98.57c46.41,0,84-21.25,84-47.46s-37.62-47.46-84-47.46-84,21.24-84,47.46,37.62,47.46,84,47.46"/><g class="cls-4"><g class="cls-36"><g class="cls-37"><g class="cls-4"><g class="cls-36"><path class="cls-11" d="M225.18,75.64V99.19c0,.22,0,.45,0,.67V76.31c0-.23,0-.45,0-.67"/><path class="cls-12" d="M225.18,76.31V99.86a30,30,0,0,1-.53,4.91V81.21a29.74,29.74,0,0,0,.53-4.9"/><path class="cls-13" d="M224.65,81.21v23.56a31.22,31.22,0,0,1-1.33,4.76V86a30.91,30.91,0,0,0,1.33-4.76"/><path class="cls-14" d="M223.32,86v23.56a34.29,34.29,0,0,1-2.17,4.76V90.74A33.88,33.88,0,0,0,223.32,86"/><path class="cls-15" d="M221.15,90.74v23.55a40.09,40.09,0,0,1-3.2,4.92V95.66a40.09,40.09,0,0,0,3.2-4.92"/><path class="cls-16" d="M218,95.66v23.55a49.2,49.2,0,0,1-4.85,5.48V101.14A49.2,49.2,0,0,0,218,95.66"/><path class="cls-17" d="M213.1,101.14v23.55a63.77,63.77,0,0,1-8.2,6.71V107.85a63.77,63.77,0,0,0,8.2-6.71"/><path class="cls-18" d="M204.9,107.85V131.4c-9.17,6.37-21,11.46-34.5,14.75V122.6c13.51-3.29,25.33-8.39,34.5-14.75"/><path class="cls-17" d="M170.4,122.6v23.55c-4.32,1-8.81,1.92-13.45,2.58V125.18c4.64-.66,9.13-1.53,13.45-2.58"/><path class="cls-16" d="M157,125.18v23.55q-5.12.74-10.44,1.13V126.31q5.33-.39,10.44-1.13"/><path class="cls-15" d="M146.51,126.31v23.55q-4.65.34-9.44.42V126.73q4.78-.08,9.44-.42"/><path class="cls-14" d="M137.07,126.73v23.55l-2.37,0c-2.2,0-4.37-.05-6.53-.13V126.62c2.16.08,4.33.13,6.53.13l2.37,0"/><path class="cls-13" d="M128.17,126.62v23.55q-4.29-.18-8.48-.58V126q4.19.4,8.48.58"/><path class="cls-12" d="M119.69,126v23.55c-2.85-.26-5.66-.61-8.41-1V125c2.75.42,5.56.76,8.41,1"/><path class="cls-11" d="M111.28,125v23.55c-2.93-.44-5.8-1-8.61-1.57V123.44c2.81.6,5.68,1.13,8.61,1.57"/><path class="cls-10" d="M102.67,123.44V147c-3.13-.67-6.18-1.44-9.13-2.29V121.15c2.95.85,6,1.62,9.13,2.29"/><path class="cls-9" d="M93.54,121.15V144.7c-3.73-1.08-7.32-2.31-10.73-3.66V117.49c3.41,1.35,7,2.58,10.73,3.66"/><path class="cls-8" d="M82.81,117.49V141c-23.32-9.25-38.6-24.56-38.6-41.85V75.64c0,17.29,15.28,32.6,38.6,41.85"/></g></g></g></g></g></g></g><g class="cls-4"><g class="cls-38"><g class="cls-4"><g class="cls-39"><g class="cls-40"><g class="cls-4"><g class="cls-39"><path class="cls-41" d="M200.94,41.7V66.34c0-13-11.4-24.49-28.79-31.34V10.35c17.39,6.85,28.79,18.34,28.79,31.35"/><path class="cls-42" d="M172.15,10.35V35q-3.81-1.5-8-2.69V7.66c2.77.8,5.43,1.69,8,2.69"/><path class="cls-43" d="M164.18,7.66V32.31c-2.21-.64-4.5-1.2-6.84-1.69V6c2.34.49,4.63,1,6.84,1.68"/><path class="cls-44" d="M157.34,6V30.62q-3.15-.64-6.45-1.13V4.85q3.3.47,6.45,1.13"/><path class="cls-45" d="M150.89,4.85V29.49c-2-.3-4.15-.54-6.28-.72V4.12c2.13.19,4.23.43,6.28.73"/><path class="cls-46" d="M144.61,4.12V28.77c-2.1-.18-4.24-.31-6.4-.37V3.75c2.16.07,4.3.19,6.4.37"/><path class="cls-47" d="M138.21,3.75V28.4c-1.16,0-2.33,0-3.51,0s-2.15,0-3.21,0V3.75c1.06,0,2.13,0,3.21,0s2.35,0,3.51,0"/><path class="cls-48" d="M131.49,3.75V28.39c-2.4.07-4.77.2-7.09.41V4.16c2.32-.21,4.69-.35,7.09-.41"/><path class="cls-49" d="M124.4,4.16V28.8q-4.17.38-8.15,1V5.2c2.65-.45,5.37-.79,8.15-1"/><path class="cls-50" d="M116.25,5.2V29.84a97.8,97.8,0,0,0-11,2.45V7.64a100.08,100.08,0,0,1,11-2.44"/><path class="cls-51" d="M105.28,7.64V32.29a74.58,74.58,0,0,0-20.43,9V16.67a75.19,75.19,0,0,1,20.43-9"/><path class="cls-50" d="M84.85,16.67V41.32a48,48,0,0,0-7,5.5V22.18a48.7,48.7,0,0,1,7-5.51"/><path class="cls-49" d="M77.86,22.18V46.82A37.43,37.43,0,0,0,74,51.05V26.41a36.58,36.58,0,0,1,3.82-4.23"/><path class="cls-48" d="M74,26.41V51.05a30.67,30.67,0,0,0-2.5,3.8V30.21a29.94,29.94,0,0,1,2.5-3.8"/><path class="cls-47" d="M71.54,30.21V54.86a24.63,24.63,0,0,0-1.66,3.63V33.84a25.62,25.62,0,0,1,1.66-3.63"/><path class="cls-46" d="M69.88,33.84V58.49a22.92,22.92,0,0,0-1,3.62V37.46a23.54,23.54,0,0,1,1-3.62"/><path class="cls-45" d="M68.86,37.46V62.11a23.13,23.13,0,0,0-.4,3.73V41.19a23.25,23.25,0,0,1,.4-3.73"/><path class="cls-44" d="M68.46,41.19v0"/></g></g></g></g></g><path class="cls-52" d="M134.7,3.7c36.58,0,66.24,17,66.24,38s-29.66,38-66.24,38-66.24-17-66.24-38,29.65-38,66.24-38"/><g class="cls-4"><g class="cls-53"><g class="cls-54"><g class="cls-4"><g class="cls-53"><path class="cls-55" d="M200.94,41.7V66.34c0,.17,0,.34,0,.51V42.21c0-.17,0-.34,0-.51"/><path class="cls-56" d="M200.93,42.21V66.85a22.17,22.17,0,0,1-.4,3.73V45.94a22.17,22.17,0,0,0,.4-3.73"/><path class="cls-57" d="M200.53,45.94V70.58a24.34,24.34,0,0,1-1,3.62V49.56a24.68,24.68,0,0,0,1-3.62"/><path class="cls-58" d="M199.52,49.56V74.2a26.24,26.24,0,0,1-1.66,3.63V53.19a26.79,26.79,0,0,0,1.66-3.63"/><path class="cls-59" d="M197.86,53.19V77.83a30.87,30.87,0,0,1-2.51,3.81V57a30,30,0,0,0,2.51-3.8"/><path class="cls-60" d="M195.35,57V81.64a37.32,37.32,0,0,1-3.81,4.23V61.22A37.32,37.32,0,0,0,195.35,57"/><path class="cls-61" d="M191.54,61.22V85.87a50,50,0,0,1-7,5.5V66.72a48.51,48.51,0,0,0,7-5.5"/><path class="cls-62" d="M184.55,66.72V91.37a75.32,75.32,0,0,1-20.43,9V75.75a74.71,74.71,0,0,0,20.43-9"/><path class="cls-61" d="M164.12,75.75V100.4a100.6,100.6,0,0,1-11,2.44V78.2a98.3,98.3,0,0,0,11-2.45"/><path class="cls-60" d="M153.15,78.2v24.64c-2.65.45-5.37.79-8.15,1V79.24q4.17-.37,8.15-1"/><path class="cls-59" d="M145,79.24v24.64q-3.5.32-7.1.41V79.65c2.4-.07,4.77-.2,7.1-.41"/><path class="cls-58" d="M137.9,79.65v24.64c-1.06,0-2.13,0-3.2,0s-2.36,0-3.52,0V79.64c1.16,0,2.34,0,3.52,0s2.14,0,3.2,0"/><path class="cls-57" d="M131.18,79.64v24.65c-2.16-.07-4.3-.19-6.4-.37V79.27c2.1.18,4.24.31,6.4.37"/><path class="cls-56" d="M124.78,79.27v24.65c-2.13-.19-4.23-.43-6.28-.73V78.55c2,.3,4.15.54,6.28.72"/><path class="cls-55" d="M118.5,78.55v24.64q-3.3-.47-6.45-1.13V77.42q3.15.64,6.45,1.13"/><path class="cls-63" d="M112.05,77.42v24.64c-2.34-.49-4.63-1-6.84-1.68V75.73c2.21.63,4.5,1.2,6.84,1.69"/><path class="cls-64" d="M105.21,75.73v24.65q-4.15-1.2-8-2.7V73q3.81,1.5,8,2.69"/><path class="cls-65" d="M97.24,73V97.68C79.86,90.84,68.46,79.36,68.46,66.34V41.7c0,13,11.4,24.49,28.78,31.34"/></g></g></g></g></g><path class="cls-66" d="M134.7,0c40.08,0,72.69,18.71,72.69,41.7S174.78,83.39,134.7,83.39,62,64.69,62,41.7,94.61,0,134.7,0m0,79.69c36.58,0,66.24-17,66.24-38s-29.66-38-66.24-38-66.24,17-66.24,38,29.65,38,66.24,38"/><g class="cls-4"><g class="cls-67"><g class="cls-68"><g class="cls-4"><g class="cls-67"><path class="cls-44" d="M207.39,41.7V66.34c0,.19,0,.37,0,.56V42.25c0-.18,0-.37,0-.55"/><path class="cls-45" d="M207.38,42.25V66.9A24.12,24.12,0,0,1,207,71V46.33a24.13,24.13,0,0,0,.43-4.08"/><path class="cls-46" d="M207,46.33V71a25.37,25.37,0,0,1-1.11,4V50.29a25.37,25.37,0,0,0,1.11-4"/><path class="cls-47" d="M205.84,50.29V74.93a30.18,30.18,0,0,1-1.82,4V54.27a30.18,30.18,0,0,0,1.82-4"/><path class="cls-48" d="M204,54.27V78.91a33.78,33.78,0,0,1-2.75,4.18V58.44A33.68,33.68,0,0,0,204,54.27"/><path class="cls-49" d="M201.27,58.44V83.09a40.94,40.94,0,0,1-4.19,4.64V63.09a40.17,40.17,0,0,0,4.19-4.65"/><path class="cls-50" d="M197.08,63.09V87.73a53.52,53.52,0,0,1-7.69,6V69.14a54.23,54.23,0,0,0,7.69-6"/><path class="cls-51" d="M189.39,69.14V93.78a82.52,82.52,0,0,1-22.47,9.94V79.07a82.21,82.21,0,0,0,22.47-9.93"/><path class="cls-50" d="M166.92,79.07v24.65a109.29,109.29,0,0,1-12,2.68V81.76a109.28,109.28,0,0,0,12-2.69"/><path class="cls-49" d="M154.88,81.76V106.4c-2.9.49-5.88.87-8.92,1.14V82.9c3-.28,6-.66,8.92-1.14"/><path class="cls-48" d="M146,82.9v24.64q-3.83.34-7.76.45V83.35c2.62-.07,5.21-.23,7.76-.45"/><path class="cls-47" d="M138.2,83.35V108c-1.16,0-2.33.05-3.5.05s-2.57,0-3.84-.06V83.34q1.9.06,3.84.06c1.17,0,2.34,0,3.5-.05"/><path class="cls-46" d="M130.86,83.34V108c-2.37-.07-4.7-.21-7-.4V82.93q3.45.3,7,.41"/><path class="cls-45" d="M123.86,82.93v24.65c-2.33-.2-4.63-.47-6.88-.79V82.14c2.25.33,4.55.59,6.88.79"/><path class="cls-44" d="M117,82.14v24.65c-2.4-.35-4.76-.76-7.07-1.25V80.9c2.31.48,4.67.9,7.07,1.24"/><path class="cls-43" d="M109.91,80.9v24.64q-3.85-.8-7.5-1.85V79.05c2.43.7,4.93,1.31,7.5,1.85"/><path class="cls-42" d="M102.41,79.05V103.7c-3-.87-6-1.86-8.77-3V76.09c2.79,1.1,5.72,2.09,8.77,3"/><path class="cls-41" d="M93.64,76.09v24.65C74.55,93.21,62,80.6,62,66.34V41.7C62,56,74.55,68.57,93.64,76.09"/></g></g></g></g></g></g></g><path class="cls-69" d="M184.37,37.23c0,14.4-22.24,26.07-49.67,26.07S85,51.63,85,37.23s22.24-26.07,49.67-26.07,49.67,11.67,49.67,26.07"/></svg>