<svg id="Capa_1" data-name="Capa 1" xmlns="http://www.w3.org/2000/svg" xmlns:xlink="http://www.w3.org/1999/xlink" viewBox="0 0 225.31 183.48"><defs><style>.cls-1{fill:none;}.cls-2{opacity:0.2;}.cls-3{clip-path:url(#clip-path);}.cls-4{isolation:isolate;}.cls-5{clip-path:url(#clip-path-2);}.cls-6{clip-path:url(#clip-path-3);}.cls-7{clip-path:url(#clip-path-4);}.cls-8{fill:#222;}.cls-9{fill:#242424;}.cls-10{fill:#252525;}.cls-11{fill:#262626;}.cls-12{fill:#282828;}.cls-13{fill:#292929;}.cls-14{fill:#2a2a2a;}.cls-15{fill:#2c2c2c;}.cls-16{fill:#2d2d2d;}.cls-17{fill:#2e2e2e;}.cls-18{fill:#303030;}.cls-19{clip-path:url(#clip-path-6);}.cls-20{clip-path:url(#clip-path-7);}.cls-21{fill:#656568;}.cls-22{clip-path:url(#clip-path-9);}.cls-23{clip-path:url(#clip-path-10);}.cls-24{fill:#717174;}.cls-25{fill:#747578;}.cls-26{fill:#78797c;}.cls-27{fill:#7c7d80;}.cls-28{fill:#808184;}.cls-29{fill:#848588;}.cls-30{fill:#88888c;}.cls-31{fill:#8c8c90;}.cls-32{fill:#6d6d70;}.cls-33{fill:#69696c;}.cls-34{fill:#a6a7ab;}.cls-35{fill:#383838;}.cls-36{clip-path:url(#clip-path-12);}.cls-37{clip-path:url(#clip-path-13);}.cls-38{clip-path:url(#clip-path-15);}.cls-39{fill:#dbdbdb;}.cls-40{fill:#737276;}.cls-41{fill:#fff;}</style><clipPath id="clip-path"><rect class="cls-1" y="49.48" width="225.31" height="134"/></clipPath><clipPath id="clip-path-2"><rect class="cls-1" x="44.21" y="24.53" width="180.97" height="125.77"/></clipPath><clipPath id="clip-path-3"><rect class="cls-1" x="50.66" y="28.17" width="168.06" height="71.02"/></clipPath><clipPath id="clip-path-4"><path class="cls-1" d="M218.73,75.64V99.19c0-26.21-37.62-47.46-84-47.46s-84,21.25-84,47.46V75.64c0-26.22,37.62-47.47,84-47.47s84,21.25,84,47.47"/></clipPath><clipPath id="clip-path-6"><rect class="cls-1" x="50.66" y="75.64" width="35.79" height="62.42"/></clipPath><clipPath id="clip-path-7"><path class="cls-1" d="M64.37,125.18c-8.67-7.47-13.71-16.39-13.71-26V75.64c0,9.59,5,18.52,13.71,26v23.55Z"/></clipPath><clipPath id="clip-path-9"><rect class="cls-1" x="50.66" y="75.64" width="168.06" height="71.01"/></clipPath><clipPath id="clip-path-10"><path class="cls-1" d="M64.37,125.18V101.63c15,12.93,40.9,21.47,70.33,21.47,46.41,0,84-21.25,84-47.46V99.19c0,26.21-37.62,47.46-84,47.46-29.43,0-55.32-8.54-70.33-21.47"/></clipPath><clipPath id="clip-path-12"><rect class="cls-1" x="44.21" y="75.64" width="180.97" height="74.66"/></clipPath><clipPath id="clip-path-13"><path class="cls-1" d="M225.18,75.64V99.19c0,28.18-40.59,51.11-90.48,51.11S44.21,127.37,44.21,99.19V75.64c0,28.18,40.59,51.11,90.49,51.11s90.48-22.93,90.48-51.11"/></clipPath><clipPath id="clip-path-15"><rect class="cls-1" x="62.01" y="33.53" width="145.38" height="108.04"/></clipPath></defs><g class="cls-2"><g class="cls-3"><path d="M224.81,98.22c5.8,35.6-39.72,72.63-101.66,82.71S6.29,170.33.5,134.74,40.22,62.12,102.16,52,219,62.63,224.81,98.22"/></g></g><g class="cls-4"><g class="cls-5"><g class="cls-4"><g class="cls-6"><g class="cls-7"><g class="cls-4"><g class="cls-6"><path class="cls-8" d="M218.73,75.64V99.19c0-16.08-14.15-30.28-35.79-38.87V36.77c21.64,8.59,35.79,22.79,35.79,38.87"/><path class="cls-9" d="M182.94,36.77V60.32c-3.16-1.25-6.49-2.39-9.95-3.39V33.38c3.46,1,6.79,2.13,9.95,3.39"/><path class="cls-10" d="M173,33.38V56.93c-2.74-.79-5.57-1.51-8.47-2.13V31.25c2.9.62,5.73,1.33,8.47,2.13"/><path class="cls-11" d="M164.52,31.25V54.8q-3.92-.84-8-1.46V29.79q4.08.62,8,1.46"/><path class="cls-12" d="M156.52,29.79V53.34c-2.56-.38-5.18-.71-7.83-1V28.83c2.65.25,5.27.57,7.83,1"/><path class="cls-13" d="M148.69,28.83V52.38c-2.59-.24-5.23-.42-7.9-.53V28.3c2.67.11,5.31.28,7.9.53"/><path class="cls-14" d="M140.79,28.3V51.85q-3-.12-6.09-.12h-2.22V28.19l2.22,0c2,0,4.07,0,6.09.13"/><path class="cls-15" d="M132.48,28.19V51.74c-3,0-5.91.18-8.8.39V28.58c2.89-.21,5.83-.35,8.8-.39"/><path class="cls-16" d="M123.68,28.58V52.13c-3.3.24-6.55.6-9.72,1V29.63c3.17-.45,6.42-.81,9.72-1.05"/><path class="cls-17" d="M114,29.63V53.18c-4.31.62-8.49,1.43-12.51,2.41V32c4-1,8.2-1.78,12.51-2.4"/><path class="cls-18" d="M101.45,32V55.58c-12.52,3.05-23.47,7.77-32,13.67V45.7C78,39.8,88.93,35.08,101.45,32"/><path class="cls-17" d="M69.49,45.7V69.25a58.88,58.88,0,0,0-7.6,6.22V51.92a58.88,58.88,0,0,1,7.6-6.22"/><path class="cls-16" d="M61.89,51.92V75.47a46,46,0,0,0-4.5,5.08V57a46,46,0,0,1,4.5-5.08"/><path class="cls-15" d="M57.39,57V80.55a38.09,38.09,0,0,0-3,4.58V61.57a38,38,0,0,1,3-4.57"/><path class="cls-14" d="M54.41,61.57V85.12a32.58,32.58,0,0,0-2,4.44V66a33,33,0,0,1,2-4.43"/><path class="cls-13" d="M52.4,66V89.55A29.33,29.33,0,0,0,51.16,94V70.44A29.33,29.33,0,0,1,52.4,66"/><path class="cls-12" d="M51.16,70.44V94a27.9,27.9,0,0,0-.49,4.58V75a27.9,27.9,0,0,1,.49-4.57"/><path class="cls-11" d="M50.67,75V98.57c0,.2,0,.41,0,.62V75.64c0-.21,0-.42,0-.62"/></g></g></g></g></g><g class="cls-4"><g class="cls-19"><g class="cls-20"><g class="cls-4"><g class="cls-19"><path class="cls-21" d="M86.46,114.51v23.55c-21.65-8.59-35.8-22.8-35.8-38.87V75.64c0,16.07,14.15,30.28,35.8,38.87"/></g></g></g></g></g><g class="cls-4"><g class="cls-22"><g class="cls-23"><g class="cls-4"><g class="cls-22"><path class="cls-24" d="M218.73,75.64V99.19c0,.21,0,.42,0,.62V76.26c0-.21,0-.41,0-.62"/><path class="cls-25" d="M218.72,76.26V99.81a26.85,26.85,0,0,1-.49,4.58V80.84a27,27,0,0,0,.49-4.58"/><path class="cls-26" d="M218.23,80.84v23.55a29.29,29.29,0,0,1-1.23,4.44V85.27a28.85,28.85,0,0,0,1.23-4.43"/><path class="cls-27" d="M217,85.27v23.55a32,32,0,0,1-2,4.43V89.7a32.53,32.53,0,0,0,2-4.43"/><path class="cls-28" d="M215,89.7v23.55a36.91,36.91,0,0,1-3,4.58V94.28a37.67,37.67,0,0,0,3-4.58"/><path class="cls-29" d="M212,94.28v23.55a45,45,0,0,1-4.5,5.08V99.36a45.89,45.89,0,0,0,4.5-5.08"/><path class="cls-30" d="M207.5,99.36v23.55a58.2,58.2,0,0,1-7.6,6.22V105.58a58.2,58.2,0,0,0,7.6-6.22"/><path class="cls-31" d="M199.9,105.58v23.55c-8.49,5.9-19.44,10.62-32,13.66V119.24c12.52-3,23.47-7.77,32-13.66"/><path class="cls-30" d="M167.94,119.24v23.55c-4,1-8.19,1.79-12.5,2.41V121.65c4.31-.62,8.49-1.43,12.5-2.41"/><path class="cls-29" d="M155.44,121.65V145.2q-4.77.68-9.73,1.05V122.7q5-.37,9.73-1"/><path class="cls-28" d="M145.71,122.7v23.55q-4.34.31-8.8.39V123.09q4.47-.07,8.8-.39"/><path class="cls-27" d="M136.91,123.08v23.56H134.7q-3.07,0-6.09-.12V123q3,.12,6.09.12c.74,0,1.48,0,2.21,0"/><path class="cls-26" d="M128.61,123v23.55q-4-.17-7.91-.53V122.45q3.9.36,7.91.53"/><path class="cls-25" d="M120.7,122.45V146q-4-.37-7.82-1V121.49c2.56.38,5.17.71,7.82,1"/><path class="cls-24" d="M112.88,121.49V145c-2.73-.42-5.4-.9-8-1.46V120q3.91.82,8,1.46"/><path class="cls-32" d="M104.87,120v23.55c-2.9-.62-5.73-1.34-8.47-2.13V117.9c2.74.79,5.57,1.5,8.47,2.13"/><path class="cls-33" d="M96.4,117.9v23.55c-3.46-1-6.78-2.14-9.94-3.39V114.51c3.16,1.25,6.48,2.39,9.94,3.39"/><path class="cls-21" d="M86.46,114.51v23.55c-21.65-8.59-35.8-22.8-35.8-38.87V75.64c0,16.07,14.15,30.28,35.8,38.87"/></g></g></g></g></g><path class="cls-34" d="M134.7,28.18c46.41,0,84,21.24,84,47.46s-37.62,47.46-84,47.46-84-21.25-84-47.46,37.62-47.46,84-47.46"/><path class="cls-35" d="M134.7,24.53c49.89,0,90.48,22.93,90.48,51.11s-40.59,51.11-90.48,51.11S44.21,103.82,44.21,75.64,84.8,24.53,134.7,24.53m0,98.57c46.41,0,84-21.25,84-47.46s-37.62-47.46-84-47.46-84,21.24-84,47.46,37.62,47.46,84,47.46"/><g class="cls-4"><g class="cls-36"><g class="cls-37"><g class="cls-4"><g class="cls-36"><path class="cls-11" d="M225.18,75.64V99.19c0,.22,0,.45,0,.67V76.31c0-.23,0-.45,0-.67"/><path class="cls-12" d="M225.18,76.31V99.86a30,30,0,0,1-.53,4.91V81.21a29.74,29.74,0,0,0,.53-4.9"/><path class="cls-13" d="M224.65,81.21v23.56a31.22,31.22,0,0,1-1.33,4.76V86a30.91,30.91,0,0,0,1.33-4.76"/><path class="cls-14" d="M223.32,86v23.56a34.29,34.29,0,0,1-2.17,4.76V90.74A33.88,33.88,0,0,0,223.32,86"/><path class="cls-15" d="M221.15,90.74v23.55a40.09,40.09,0,0,1-3.2,4.92V95.66a40.09,40.09,0,0,0,3.2-4.92"/><path class="cls-16" d="M218,95.66v23.55a49.2,49.2,0,0,1-4.85,5.48V101.14A50.11,50.11,0,0,0,218,95.66"/><path class="cls-17" d="M213.1,101.14v23.55a63.77,63.77,0,0,1-8.2,6.71V107.85a63.77,63.77,0,0,0,8.2-6.71"/><path class="cls-18" d="M204.9,107.85V131.4c-9.17,6.37-21,11.46-34.5,14.75V122.6c13.51-3.29,25.33-8.39,34.5-14.75"/><path class="cls-17" d="M170.4,122.6v23.55c-4.32,1-8.81,1.92-13.45,2.58V125.18c4.64-.66,9.13-1.53,13.45-2.58"/><path class="cls-16" d="M157,125.18v23.55q-5.12.74-10.44,1.13V126.31q5.33-.39,10.44-1.13"/><path class="cls-15" d="M146.51,126.31v23.55q-4.65.34-9.44.42V126.73q4.78-.08,9.44-.42"/><path class="cls-14" d="M137.07,126.73v23.55l-2.37,0c-2.2,0-4.37-.05-6.53-.13V126.62c2.16.08,4.33.13,6.53.13l2.37,0"/><path class="cls-13" d="M128.17,126.62v23.55q-4.29-.18-8.48-.58V126q4.19.4,8.48.58"/><path class="cls-12" d="M119.69,126v23.55c-2.85-.26-5.66-.61-8.41-1V125c2.75.42,5.56.76,8.41,1"/><path class="cls-11" d="M111.28,125v23.55c-2.93-.44-5.8-1-8.61-1.57V123.44c2.81.6,5.68,1.13,8.61,1.57"/><path class="cls-10" d="M102.67,123.44V147c-3.13-.67-6.18-1.44-9.13-2.29V121.15c2.95.85,6,1.62,9.13,2.29"/><path class="cls-9" d="M93.54,121.15V144.7c-3.73-1.08-7.32-2.31-10.73-3.66V117.49c3.41,1.35,7,2.58,10.73,3.66"/><path class="cls-8" d="M82.81,117.49V141c-23.32-9.25-38.6-24.56-38.6-41.85V75.64c0,17.29,15.28,32.6,38.6,41.85"/></g></g></g></g></g></g></g><g class="cls-4"><g class="cls-38"><path class="cls-39" d="M134.7,37.23c36.58,0,66.24,17,66.24,38s-29.66,38-66.24,38-66.24-17-66.24-38,29.65-38,66.24-38"/><path class="cls-40" d="M134.7,33.53c40.08,0,72.69,18.71,72.69,41.7s-32.61,41.69-72.69,41.69S62,98.22,62,75.23s32.6-41.7,72.69-41.7m0,79.69c36.58,0,66.24-17,66.24-38s-29.66-38-66.24-38-66.24,17-66.24,38,29.65,38,66.24,38"/></g></g><path class="cls-41" d="M184.37,71.76c0,14.4-22.24,26.07-49.67,26.07S85,86.16,85,71.76s22.24-26.07,49.67-26.07,49.67,11.67,49.67,26.07"/></svg>