<svg id="Capa_1" data-name="Capa 1" xmlns="http://www.w3.org/2000/svg" xmlns:xlink="http://www.w3.org/1999/xlink" viewBox="0 0 225.31 186.19"><defs><style>.cls-1{fill:none;}.cls-2{opacity:0.2;}.cls-3{clip-path:url(#clip-path);}.cls-4{isolation:isolate;}.cls-5{clip-path:url(#clip-path-2);}.cls-6{clip-path:url(#clip-path-3);}.cls-7{clip-path:url(#clip-path-4);}.cls-8{fill:#222;}.cls-9{fill:#242424;}.cls-10{fill:#252525;}.cls-11{fill:#262626;}.cls-12{fill:#282828;}.cls-13{fill:#292929;}.cls-14{fill:#2a2a2a;}.cls-15{fill:#2c2c2c;}.cls-16{fill:#2d2d2d;}.cls-17{fill:#2e2e2e;}.cls-18{fill:#303030;}.cls-19{fill:#a6a7ab;}.cls-20{clip-path:url(#clip-path-6);}.cls-21{clip-path:url(#clip-path-7);}.cls-22{fill:#717174;}.cls-23{fill:#747578;}.cls-24{fill:#78797c;}.cls-25{fill:#7c7d80;}.cls-26{fill:#808184;}.cls-27{fill:#848588;}.cls-28{fill:#88888c;}.cls-29{fill:#8c8c90;}.cls-30{fill:#6d6d70;}.cls-31{fill:#69696c;}.cls-32{fill:#656568;}.cls-33{fill:#383838;}.cls-34{clip-path:url(#clip-path-9);}.cls-35{clip-path:url(#clip-path-10);}.cls-36{clip-path:url(#clip-path-12);}.cls-37{fill:#4a0000;}.cls-38{fill:#a3030f;}.cls-39{fill:#be0411;}</style><clipPath id="clip-path"><rect class="cls-1" y="56.21" width="225.31" height="134"/></clipPath><clipPath id="clip-path-2"><rect class="cls-1" x="44.21" y="31.26" width="180.97" height="125.77"/></clipPath><clipPath id="clip-path-3"><rect class="cls-1" x="50.67" y="34.91" width="168.07" height="71.02"/></clipPath><clipPath id="clip-path-4"><path class="cls-1" d="M218.73,82.37v23.55c0-26.21-37.62-47.46-84-47.46s-84,21.25-84,47.46V82.37c0-26.22,37.62-47.46,84-47.46s84,21.24,84,47.46"/></clipPath><clipPath id="clip-path-6"><rect class="cls-1" x="50.67" y="82.37" width="168.07" height="71.01"/></clipPath><clipPath id="clip-path-7"><path class="cls-1" d="M134.7,153.38c-46.41,0-84-21.24-84-47.46V82.37c0,26.22,37.62,47.46,84,47.46s84-21.24,84-47.46v23.55c0,26.22-37.62,47.46-84,47.46"/></clipPath><clipPath id="clip-path-9"><rect class="cls-1" x="44.21" y="82.37" width="180.97" height="74.66"/></clipPath><clipPath id="clip-path-10"><path class="cls-1" d="M225.19,82.37v23.55c0,28.18-40.6,51.11-90.49,51.11S44.21,134.1,44.21,105.92V82.37c0,28.18,40.6,51.11,90.49,51.11s90.49-22.93,90.49-51.11"/></clipPath><clipPath id="clip-path-12"><rect class="cls-1" x="62" y="39.73" width="145.39" height="108.03"/></clipPath></defs><g class="cls-2"><g class="cls-3"><path d="M224.81,105c5.8,35.6-39.72,72.63-101.66,82.71S6.29,177.07.5,141.47,40.22,68.85,102.16,58.76,219,69.36,224.81,105"/></g></g><g class="cls-4"><g class="cls-5"><g class="cls-4"><g class="cls-6"><g class="cls-7"><g class="cls-4"><g class="cls-6"><path class="cls-8" d="M218.73,82.37v23.55c0-16.07-14.14-30.28-35.79-38.87V43.5c21.65,8.59,35.79,22.79,35.79,38.87"/><path class="cls-9" d="M182.94,43.5V67.05c-3.16-1.25-6.49-2.39-9.95-3.39V40.11c3.46,1,6.79,2.14,9.95,3.39"/><path class="cls-10" d="M173,40.11V63.66c-2.74-.79-5.57-1.5-8.47-2.13V38c2.9.62,5.73,1.34,8.47,2.13"/><path class="cls-11" d="M164.52,38V61.53c-2.61-.56-5.28-1-8-1.46V36.52q4.08.61,8,1.46"/><path class="cls-12" d="M156.52,36.52V60.07c-2.57-.38-5.17-.71-7.83-1V35.56c2.66.25,5.26.57,7.83,1"/><path class="cls-13" d="M148.69,35.56V59.11c-2.59-.24-5.23-.42-7.9-.53V35c2.67.11,5.31.29,7.9.53"/><path class="cls-14" d="M140.79,35V58.58q-3-.12-6.09-.12h-2.21V34.92h2.21q3.08,0,6.09.12"/><path class="cls-15" d="M132.48,34.92V58.47q-4.46.08-8.79.39V35.31q4.34-.31,8.79-.39"/><path class="cls-16" d="M123.69,35.31V58.86q-5,.38-9.73,1.06V36.36c3.18-.45,6.42-.81,9.73-1"/><path class="cls-17" d="M114,36.36V59.91c-4.31.62-8.49,1.43-12.5,2.41V38.76c4-1,8.19-1.78,12.5-2.4"/><path class="cls-18" d="M101.46,38.77V62.32C88.93,65.37,78,70.09,69.5,76V52.43c8.49-5.9,19.43-10.62,32-13.66"/><path class="cls-17" d="M69.5,52.43V76a58.2,58.2,0,0,0-7.6,6.22V58.65a58.2,58.2,0,0,1,7.6-6.22"/><path class="cls-16" d="M61.9,58.65V82.2a45.89,45.89,0,0,0-4.5,5.08V63.73a45,45,0,0,1,4.5-5.08"/><path class="cls-15" d="M57.4,63.73V87.28a35.81,35.81,0,0,0-3,4.58V68.31a35.81,35.81,0,0,1,3-4.58"/><path class="cls-14" d="M54.42,68.31V91.86a30.85,30.85,0,0,0-2,4.43V72.73a31.25,31.25,0,0,1,2-4.42"/><path class="cls-13" d="M52.4,72.74V96.29a28.85,28.85,0,0,0-1.23,4.43V77.17a28.85,28.85,0,0,1,1.23-4.43"/><path class="cls-12" d="M51.17,77.17v23.55a28,28,0,0,0-.5,4.58V81.75a27.91,27.91,0,0,1,.5-4.58"/><path class="cls-11" d="M50.67,81.75v0"/></g></g></g></g></g><path class="cls-19" d="M134.7,34.91c46.41,0,84,21.25,84,47.46s-37.62,47.46-84,47.46-84-21.24-84-47.46,37.62-47.46,84-47.46"/><g class="cls-4"><g class="cls-20"><g class="cls-21"><g class="cls-4"><g class="cls-20"><path class="cls-22" d="M218.73,82.37v0"/><path class="cls-23" d="M218.73,83v23.55a27.9,27.9,0,0,1-.49,4.58V87.57a28,28,0,0,0,.49-4.58"/><path class="cls-24" d="M218.24,87.57v23.55a28.89,28.89,0,0,1-1.24,4.43V92a28.89,28.89,0,0,0,1.24-4.43"/><path class="cls-25" d="M217,92v23.55a30.85,30.85,0,0,1-2,4.43V96.43A31.36,31.36,0,0,0,217,92"/><path class="cls-26" d="M215,96.43V120a36.82,36.82,0,0,1-3,4.58V101a37.58,37.58,0,0,0,3-4.58"/><path class="cls-27" d="M212,101v23.55a44.89,44.89,0,0,1-4.49,5.08V106.09A45.78,45.78,0,0,0,212,101"/><path class="cls-28" d="M207.51,106.09v23.55a59.57,59.57,0,0,1-7.6,6.22V112.31a59.57,59.57,0,0,0,7.6-6.22"/><path class="cls-29" d="M199.91,112.31v23.55c-8.5,5.9-19.45,10.62-32,13.67V126c12.52-3,23.47-7.76,32-13.66"/><path class="cls-28" d="M167.94,126v23.56c-4,1-8.19,1.78-12.5,2.4V128.38q6.47-.93,12.5-2.41"/><path class="cls-27" d="M155.44,128.38v23.55c-3.18.45-6.42.81-9.73,1V129.43q5-.37,9.73-1.05"/><path class="cls-26" d="M145.71,129.43V153c-2.89.21-5.82.35-8.79.39V129.82q4.46-.07,8.79-.39"/><path class="cls-25" d="M136.92,129.82v23.55H134.7q-3.07,0-6.09-.12V129.71q3,.12,6.09.12h2.22"/><path class="cls-24" d="M128.61,129.71v23.55c-2.67-.11-5.31-.28-7.9-.53V129.18c2.59.24,5.23.42,7.9.53"/><path class="cls-23" d="M120.71,129.18v23.55q-4-.37-7.83-1V128.22q3.84.59,7.83,1"/><path class="cls-22" d="M112.88,128.22v23.55q-4.08-.61-8-1.46V126.76c2.61.56,5.28,1,8,1.46"/><path class="cls-30" d="M104.88,126.76v23.55q-4.36-.93-8.47-2.13V124.63q4.11,1.19,8.47,2.13"/><path class="cls-31" d="M96.41,124.63v23.55c-3.46-1-6.79-2.14-10-3.39V121.24c3.16,1.25,6.49,2.39,10,3.39"/><path class="cls-32" d="M86.46,121.24v23.55C64.81,136.2,50.67,122,50.67,105.92V82.37c0,16.08,14.14,30.28,35.79,38.87"/></g></g></g></g></g><path class="cls-33" d="M134.7,31.26c49.89,0,90.49,22.93,90.49,51.11s-40.6,51.11-90.49,51.11S44.21,110.55,44.21,82.37,84.8,31.26,134.7,31.26m0,98.57c46.41,0,84-21.24,84-47.46s-37.62-47.46-84-47.46-84,21.25-84,47.46,37.62,47.46,84,47.46"/><g class="cls-4"><g class="cls-34"><g class="cls-35"><g class="cls-4"><g class="cls-34"><path class="cls-11" d="M225.19,82.37v23.55c0,.22,0,.45,0,.67V83c0-.22,0-.45,0-.67"/><path class="cls-12" d="M225.18,83v23.55a30,30,0,0,1-.53,4.91V87.94a29.74,29.74,0,0,0,.53-4.9"/><path class="cls-13" d="M224.65,88V111.5a30.75,30.75,0,0,1-1.32,4.75V92.7A31.06,31.06,0,0,0,224.65,88"/><path class="cls-14" d="M223.33,92.7v23.55a35.05,35.05,0,0,1-2.17,4.77V97.47a35.05,35.05,0,0,0,2.17-4.77"/><path class="cls-15" d="M221.16,97.47V121a39,39,0,0,1-3.21,4.92V102.39a39,39,0,0,0,3.21-4.92"/><path class="cls-16" d="M218,102.39v23.55a47.26,47.26,0,0,1-4.85,5.48V107.87a48.1,48.1,0,0,0,4.85-5.48"/><path class="cls-17" d="M213.1,107.87v23.55a63.09,63.09,0,0,1-8.2,6.71V114.58a63.09,63.09,0,0,0,8.2-6.71"/><path class="cls-18" d="M204.9,114.58v23.55c-9.17,6.37-21,11.46-34.5,14.75V129.33c13.51-3.29,25.33-8.39,34.5-14.75"/><path class="cls-17" d="M170.4,129.33v23.55c-4.32,1.05-8.82,1.92-13.45,2.59V131.92c4.63-.67,9.13-1.54,13.45-2.59"/><path class="cls-16" d="M157,131.92v23.55c-3.41.49-6.89.86-10.44,1.13V133c3.55-.26,7-.64,10.44-1.12"/><path class="cls-15" d="M146.51,133V156.6c-3.1.23-6.25.37-9.43.41V133.46c3.18-.05,6.33-.19,9.43-.42"/><path class="cls-14" d="M137.08,133.46V157l-2.38,0c-2.19,0-4.37,0-6.52-.13V133.35c2.15.08,4.33.13,6.52.13l2.38,0"/><path class="cls-13" d="M128.18,133.35V156.9q-4.31-.18-8.49-.57V132.77q4.19.4,8.49.58"/><path class="cls-12" d="M119.69,132.77v23.56q-4.27-.41-8.41-1V131.74q4.14.63,8.41,1"/><path class="cls-11" d="M111.28,131.74v23.55q-4.4-.66-8.61-1.57V130.17c2.81.6,5.68,1.13,8.61,1.57"/><path class="cls-10" d="M102.67,130.17v23.55c-3.12-.67-6.17-1.43-9.12-2.29V127.88c3,.86,6,1.62,9.12,2.29"/><path class="cls-9" d="M93.55,127.88v23.55q-5.61-1.62-10.73-3.66V124.22c3.41,1.35,7,2.58,10.73,3.66"/><path class="cls-8" d="M82.82,124.22v23.55c-23.33-9.25-38.61-24.56-38.61-41.85V82.37c0,17.29,15.28,32.6,38.61,41.85"/></g></g></g></g></g></g></g><g class="cls-4"><g class="cls-36"><path class="cls-37" d="M134.7,39.73c40.08,0,72.69,18.71,72.69,41.7s-32.61,41.69-72.69,41.69S62,104.42,62,81.43s32.61-41.7,72.7-41.7m0,79.7c36.58,0,66.25-17,66.25-38s-29.67-38-66.25-38-66.24,17-66.24,38,29.65,38,66.24,38"/><path class="cls-38" d="M134.7,43.43c36.58,0,66.25,17,66.25,38s-29.67,38-66.25,38-66.24-17-66.24-38,29.65-38,66.24-38"/></g></g><path class="cls-39" d="M184.37,78c0,14.4-22.24,26.07-49.67,26.07S85,92.36,85,78s22.24-26.07,49.67-26.07S184.37,63.56,184.37,78"/></svg>